<?xml version="1.0" standalone="no"?>
<!DOCTYPE svg PUBLIC "-//W3C//DTD SVG 20010904//EN"
 "http://www.w3.org/TR/2001/REC-SVG-20010904/DTD/svg10.dtd">
<svg version="1.0" xmlns="http://www.w3.org/2000/svg"
 width="225.000000pt" height="225.000000pt" viewBox="0 0 225.000000 225.000000"
 preserveAspectRatio="xMidYMid meet">

<g transform="translate(0.000000,225.000000) scale(0.100000,-0.100000)"
fill="#000000" stroke="none">
<path d="M0 1125 l0 -1125 1125 0 1125 0 0 1125 0 1125 -1125 0 -1125 0 0
-1125z m1202 681 c30 -14 68 -39 84 -55 27 -28 33 -30 79 -24 66 7 165 -18
227 -58 116 -75 187 -236 158 -363 -10 -45 -9 -52 14 -85 48 -69 60 -111 60
-206 1 -77 -3 -98 -25 -146 -46 -97 -132 -175 -223 -200 -27 -7 -37 -17 -46
-44 -14 -41 -90 -128 -141 -160 -125 -80 -303 -66 -418 31 -31 26 -41 28 -115
29 -110 1 -185 35 -260 116 -79 85 -100 146 -93 271 4 72 2 100 -8 108 -7 6
-25 38 -41 73 -37 82 -39 192 -5 280 33 83 117 167 197 196 54 20 63 28 82 66
44 90 133 164 231 192 69 19 177 10 243 -21z"/>
<path d="M985 1736 c-93 -30 -140 -70 -177 -151 -21 -47 -23 -63 -23 -244 l0
-195 55 -33 c30 -18 58 -33 63 -33 4 0 7 94 7 209 l0 210 28 19 c15 10 85 52
156 92 119 68 127 74 110 88 -54 41 -155 59 -219 38z"/>
<path d="M1305 1618 c-16 -6 -97 -50 -180 -98 l-150 -88 -3 -72 -3 -72 33 20
c18 11 102 59 186 107 l153 87 112 -63 c62 -34 132 -75 157 -90 l45 -28 3 50
c5 89 -59 193 -147 236 -43 21 -163 27 -206 11z"/>
<path d="M638 1460 c-87 -58 -134 -167 -116 -268 19 -108 61 -150 264 -266
l152 -87 56 31 c31 18 56 35 56 39 0 4 -70 47 -157 96 -227 130 -202 94 -205
306 l-3 180 -47 -31z"/>
<path d="M1253 1377 c-29 -17 -53 -34 -53 -37 1 -3 82 -52 180 -108 l180 -104
0 -184 0 -184 38 19 c153 79 184 300 60 422 -31 31 -330 210 -346 208 -4 0
-31 -15 -59 -32z"/>
<path d="M1043 1257 l-72 -42 -1 -90 0 -90 75 -42 c41 -24 77 -43 81 -43 3 0
40 19 80 42 l74 42 0 90 0 91 -74 43 c-40 23 -77 42 -82 41 -5 0 -41 -19 -81
-42z"/>
<path d="M1350 973 c0 -159 -3 -203 -15 -220 -8 -11 -80 -58 -160 -103 -80
-45 -145 -84 -145 -86 0 -2 23 -15 51 -30 41 -20 66 -26 120 -26 86 0 143 26
199 89 60 69 70 115 70 328 l0 182 -60 32 -60 32 0 -198z"/>
<path d="M1175 899 c-55 -33 -137 -80 -183 -105 l-84 -46 -156 91 -157 90 -3
-40 c-8 -96 64 -208 159 -249 42 -18 66 -21 124 -18 69 3 77 6 226 92 85 48
160 94 167 100 9 9 12 34 10 78 l-3 66 -100 -59z"/>
</g>
</svg>
